<svg xmlns="http://www.w3.org/2000/svg" width="36.226" height="28.566" viewBox="0 0 36.226 28.566"><defs><style>.a,.b{fill:none;stroke:#1c9b60;stroke-linecap:round;stroke-linejoin:round;}.a{stroke-width:2px;}.b{stroke-width:1.5px;}</style></defs><g transform="translate(1 1.061)"><g transform="translate(0 3.121)"><path class="a" d="M22.286,30.295V27.7a5.2,5.2,0,0,0-5.2-5.2H6.7a5.2,5.2,0,0,0-5.2,5.2v2.6" transform="translate(-1.5 -6.91)"/><path class="a" d="M17.893,9.7a5.2,5.2,0,1,1-5.2-5.2,5.2,5.2,0,0,1,5.2,5.2Z" transform="translate(-2.303 -4.5)"/><path class="a" d="M33.9,30.321v-2.6A5.2,5.2,0,0,0,30,22.7" transform="translate(-5.316 -6.936)"/><path class="a" d="M24,4.7a5.2,5.2,0,0,1,0,10.068" transform="translate(-4.513 -4.526)"/></g><path class="b" d="M13.364,9,8.3,14.063,6,11.762" transform="translate(20.801 -9)"/></g></svg>