<svg xmlns="http://www.w3.org/2000/svg" width="29" height="29" viewBox="0 0 29 29"><defs><style>.a{fill:#ff8900;}</style></defs><path class="a" d="M9,29.25H26.75v3.375H9Z" transform="translate(-3.375 -3.625)"/><path class="a" d="M18,20.25a2.25,2.25,0,1,0-.619-4.416l-4.69-3.424-.281.246,3.438,4.69a2.195,2.195,0,0,0-.1.654A2.248,2.248,0,0,0,18,20.25Z" transform="translate(-3.481 -3.481)"/><path class="a" d="M17.875,3.375A14.461,14.461,0,0,0,6.449,26.75h4.1l.279-.278,1.541-1.537-1.6-1.593L9.231,24.872a11.077,11.077,0,0,1-2.454-5.913H8.952V16.732H6.777a11.077,11.077,0,0,1,2.454-5.913l1.541,1.531,1.6-1.593L10.834,9.219A11.124,11.124,0,0,1,16.76,6.77V8.94H18.99V6.77a11.124,11.124,0,0,1,5.925,2.449l-1.534,1.537,1.6,1.593,1.541-1.531a11.077,11.077,0,0,1,2.454,5.913H26.8v2.226h2.175a11.077,11.077,0,0,1-2.454,5.913l-1.541-1.531-1.6,1.593,1.541,1.537.279.278h4.1A14.461,14.461,0,0,0,17.875,3.375Z" transform="translate(-3.375 -3.375)"/></svg>